<?xml version="1.0" encoding="utf-8"?>
<!-- Generator: Adobe Illustrator 16.0.0, SVG Export Plug-In . SVG Version: 6.00 Build 0)  -->
<!DOCTYPE svg PUBLIC "-//W3C//DTD SVG 1.1//EN" "http://www.w3.org/Graphics/SVG/1.1/DTD/svg11.dtd">
<svg version="1.1" id="Layer_1" xmlns="http://www.w3.org/2000/svg" xmlns:xlink="http://www.w3.org/1999/xlink" x="0px" y="0px"
	 width="100px" height="22.69px" viewBox="0 0 100 22.69" enable-background="new 0 0 100 22.69" xml:space="preserve">
<g id="Layer_2">
	<g>
		<path fill="#D0CCC8" d="M57.998,8.931h-3.938v0.417c1.232,0,1.431,0.265,1.431,1.826v2.816c0,1.561-0.198,1.846-1.431,1.846
			c-0.944-0.131-1.582-0.637-2.461-1.605l-1.013-1.098c1.364-0.244,2.089-1.102,2.089-2.068c0-1.209-1.033-2.133-2.968-2.133h-3.871
			v0.417c1.232,0,1.429,0.265,1.429,1.826v2.816c0,1.561-0.197,1.846-1.429,1.846v0.418h4.376v-0.418
			c-1.231,0-1.429-0.285-1.429-1.846v-0.793h0.374l2.442,3.057h6.398c3.145,0,4.508-1.67,4.508-3.672
			C62.506,10.581,61.143,8.931,57.998,8.931z M48.784,12.516V9.591h0.901c0.99,0,1.429,0.682,1.429,1.474
			c0,0.769-0.438,1.451-1.429,1.451H48.784L48.784,12.516z M58.064,15.572H57.91c-0.791,0-0.9-0.197-0.9-1.209V9.591
			c0,0,0.966,0,1.055,0c2.287,0,2.705,1.671,2.705,2.968C60.77,13.902,60.352,15.572,58.064,15.572z"/>
		<path fill="#D0CCC8" d="M33.588,13.33l1.519-4.487c0.439-1.297,0.241-1.671-1.166-1.671V6.732h4.134v0.439
			c-1.385,0-1.715,0.33-2.265,1.935l-2.507,7.522h-0.286l-2.244-6.884l-2.287,6.884h-0.286L25.76,9.107
			c-0.528-1.605-0.88-1.935-2.155-1.935V6.732h4.882v0.439c-1.297,0-1.65,0.308-1.188,1.671l1.474,4.487l2.221-6.598h0.418
			L33.588,13.33z"/>
		<path fill="#D0CCC8" d="M41.065,16.541c-2.419,0-4.398-1.781-4.398-3.959c0-2.156,1.979-3.937,4.398-3.937
			s4.398,1.781,4.398,3.937C45.463,14.76,43.485,16.541,41.065,16.541z M41.065,9.327c-2.023,0-2.727,1.825-2.727,3.255
			c0,1.451,0.704,3.254,2.727,3.254c2.045,0,2.749-1.803,2.749-3.254C43.814,11.152,43.11,9.327,41.065,9.327z"/>
		<path fill="#D0CCC8" d="M67.938,15.814v0.439h-5.036v-0.439c1.473,0,1.736-0.373,1.736-2.574V9.723
			c0-2.199-0.264-2.551-1.736-2.551V6.732h4.551c2.267,0,3.52,1.165,3.52,2.727c0,1.517-1.253,2.705-3.52,2.705h-1.254v1.076
			C66.199,15.441,66.465,15.814,67.938,15.814z M67.453,7.524h-1.254v3.826h1.254c1.232,0,1.805-0.858,1.805-1.891
			C69.258,8.403,68.686,7.524,67.453,7.524z"/>
		<path fill="#D0CCC8" d="M86.08,14.188l-0.109,0.395c-0.197,0.727-0.44,0.99-2.002,0.99h-0.308c-1.144,0-1.342-0.264-1.342-1.824
			v-1.012c1.716,0,1.849,0.152,1.849,1.297h0.417v-3.276h-0.417c0,1.143-0.133,1.298-1.849,1.298V9.591h1.21
			c1.561,0,1.803,0.264,2.001,0.99l0.11,0.417h0.353l-0.154-2.067h-6.467v0.417c1.232,0,1.43,0.265,1.43,1.826v2.816
			c0,1.428-0.169,1.787-1.139,1.838c-0.923-0.141-1.557-0.643-2.423-1.598l-1.013-1.098c1.363-0.244,2.09-1.102,2.09-2.068
			c0-1.209-1.033-2.133-2.968-2.133h-3.872v0.417c1.232,0,1.431,0.265,1.431,1.826v2.816c0,1.561-0.198,1.846-1.431,1.846v0.418
			h4.377v-0.418c-1.23,0-1.43-0.285-1.43-1.846v-0.793H74.8l2.44,3.057h9.038l0.132-2.066H86.08L86.08,14.188z M74.425,12.516V9.591
			h0.902c0.988,0,1.43,0.682,1.43,1.474c0,0.769-0.441,1.451-1.43,1.451H74.425L74.425,12.516z"/>
		<path fill="#D0CCC8" d="M90.544,16.541c-0.88,0-1.648-0.463-1.979-0.748c-0.11,0.109-0.308,0.439-0.352,0.748h-0.418v-3.035h0.439
			c0.177,1.451,1.188,2.309,2.486,2.309c0.702,0,1.275-0.396,1.275-1.055c0-0.572-0.506-1.012-1.407-1.43l-1.254-0.594
			c-0.881-0.418-1.54-1.144-1.54-2.111c0-1.056,0.99-1.958,2.354-1.958c0.726,0,1.341,0.265,1.716,0.572
			c0.109-0.087,0.22-0.33,0.285-0.594h0.418v2.594h-0.461c-0.154-1.033-0.728-1.891-1.892-1.891c-0.617,0-1.188,0.352-1.188,0.902
			c0,0.572,0.461,0.879,1.517,1.364l1.21,0.594c1.057,0.504,1.474,1.318,1.474,1.979C93.228,15.572,92.018,16.541,90.544,16.541z"/>
		<path fill="#D0CCC8" d="M97.316,16.541c-0.878,0-1.648-0.463-1.979-0.748c-0.109,0.109-0.308,0.439-0.352,0.748h-0.419v-3.035
			h0.441c0.175,1.451,1.188,2.309,2.484,2.309c0.704,0,1.276-0.396,1.276-1.055c0-0.572-0.507-1.012-1.408-1.43l-1.253-0.594
			c-0.88-0.418-1.541-1.144-1.541-2.111c0-1.056,0.99-1.958,2.354-1.958c0.726,0,1.341,0.265,1.715,0.572
			c0.11-0.087,0.22-0.33,0.285-0.594h0.419v2.594h-0.462c-0.154-1.033-0.726-1.891-1.892-1.891c-0.615,0-1.188,0.352-1.188,0.902
			c0,0.572,0.462,0.879,1.517,1.364l1.211,0.594c1.056,0.504,1.473,1.318,1.473,1.979C100,15.572,98.79,16.541,97.316,16.541z"/>
		<g>
			<path fill="#D0CCC8" d="M1.613,11.345c0,3.852,2.238,7.182,5.485,8.758L2.456,7.384C1.915,8.594,1.613,9.934,1.613,11.345z"/>
			<path fill="#D0CCC8" d="M17.915,10.854c0-1.203-0.432-2.035-0.803-2.684c-0.494-0.802-0.956-1.48-0.956-2.282
				c0-0.895,0.679-1.728,1.634-1.728c0.043,0,0.084,0.005,0.126,0.008c-1.732-1.586-4.039-2.555-6.573-2.555
				c-3.399,0-6.391,1.745-8.13,4.386C3.442,6.006,3.657,6.011,3.84,6.011c1.018,0,2.593-0.123,2.593-0.123
				C6.958,5.857,7.02,6.627,6.496,6.689c0,0-0.527,0.062-1.114,0.093l3.544,10.542l2.13-6.388L9.54,6.782
				C9.015,6.751,8.519,6.689,8.519,6.689C7.995,6.658,8.056,5.856,8.581,5.888c0,0,1.606,0.123,2.563,0.123
				c1.019,0,2.594-0.123,2.594-0.123c0.525-0.032,0.586,0.74,0.063,0.802c0,0-0.529,0.062-1.114,0.093l3.517,10.462L17.174,14
				C17.595,12.654,17.915,11.687,17.915,10.854z"/>
			<path fill="#D0CCC8" d="M11.516,12.195l-2.92,8.484c0.872,0.258,1.794,0.398,2.749,0.398c1.134,0,2.221-0.197,3.232-0.553
				c-0.025-0.041-0.049-0.084-0.069-0.135L11.516,12.195z"/>
			<path fill="#D0CCC8" d="M19.884,6.676c0.042,0.31,0.065,0.643,0.065,1.001c0,0.987-0.184,2.098-0.74,3.485l-2.973,8.594
				c2.894-1.686,4.84-4.82,4.84-8.411C21.077,9.653,20.645,8.062,19.884,6.676z"/>
			<path fill="#D0CCC8" d="M11.344,0C5.09,0,0,5.09,0,11.345c0,6.256,5.09,11.344,11.344,11.344c6.256,0,11.346-5.088,11.346-11.344
				C22.69,5.09,17.6,0,11.344,0z M11.344,22.17c-5.967,0-10.824-4.857-10.824-10.825c0-5.969,4.856-10.825,10.824-10.825
				c5.969,0,10.824,4.856,10.824,10.825C22.168,17.313,17.313,22.17,11.344,22.17z"/>
		</g>
	</g>
</g>
</svg>

